<?xml version="1.0" standalone="no"?>
<!DOCTYPE svg PUBLIC "-//W3C//DTD SVG 20010904//EN"
 "http://www.w3.org/TR/2001/REC-SVG-20010904/DTD/svg10.dtd">
<svg version="1.0" xmlns="http://www.w3.org/2000/svg"
 width="1320.000000pt" height="1000.000000pt" viewBox="0 0 1320.000000 1000.000000"
 preserveAspectRatio="xMidYMid meet">

<g transform="translate(0.000000,1000.000000) scale(0.100000,-0.100000)"
fill="#ffffff" stroke="none">
<path d="M6299 8486 c-77 -27 -132 -92 -149 -173 -7 -32 -10 -269 -8 -674 l3
-625 25 -49 c17 -31 44 -62 75 -85 l49 -35 306 -3 c343 -3 358 -1 423 66 69
70 67 52 67 766 0 624 -1 642 -21 686 -25 56 -53 86 -104 113 -38 21 -54 22
-335 24 -226 2 -304 0 -331 -11z"/>
<path d="M6299 6556 c-74 -26 -130 -89 -149 -167 -7 -31 -10 -421 -8 -1289 3
-1380 -2 -1279 69 -1349 68 -68 82 -71 398 -71 184 0 297 4 322 11 55 17 108
65 135 123 l24 51 0 1260 c0 1247 -1 1260 -21 1305 -25 56 -53 86 -104 113
-38 21 -54 22 -335 24 -226 2 -304 0 -331 -11z"/>
<path d="M4927 3202 c-14 -16 -17 -44 -17 -185 0 -205 -3 -199 118 -195 114 4
113 2 110 211 -4 190 -2 187 -118 187 -62 0 -80 -4 -93 -18z"/>
<path d="M5765 3206 c-82 -20 -141 -54 -194 -112 -58 -64 -85 -133 -84 -219 1
-83 25 -136 89 -194 67 -61 154 -98 343 -145 156 -39 256 -79 271 -107 16 -29
11 -75 -10 -102 -19 -24 -72 -49 -132 -61 -48 -10 -58 -30 -58 -112 0 -121 27
-133 188 -83 81 25 128 55 180 114 51 58 72 119 72 210 0 56 -5 82 -26 123
-53 106 -148 160 -404 227 -201 52 -277 84 -286 121 -14 56 35 108 121 128 50
13 55 22 55 112 0 116 -14 127 -125 100z"/>
<path d="M7108 3208 c-21 -16 -338 -759 -338 -791 0 -43 28 -57 116 -57 49 0
87 5 97 13 9 6 63 123 120 260 57 136 106 250 109 252 3 3 196 -446 256 -597
2 -4 -165 -8 -370 -8 -284 0 -378 -3 -390 -12 -23 -18 -70 -135 -66 -166 6
-52 10 -52 579 -49 502 2 528 3 548 21 12 11 21 26 21 35 0 14 -411 993 -448
1066 -8 17 -20 33 -26 37 -19 13 -191 9 -208 -4z"/>
<path d="M8084 3206 c-17 -13 -19 -29 -22 -173 -3 -209 -4 -207 110 -211 122
-4 118 -10 118 198 0 140 -3 171 -16 184 -21 21 -161 22 -190 2z"/>
<path d="M6001 3192 c-14 -26 -14 -147 -1 -172 5 -10 32 -26 58 -34 58 -20 96
-57 114 -111 16 -48 45 -65 115 -65 99 0 127 27 111 109 -28 150 -169 274
-327 288 -52 5 -60 3 -70 -15z"/>
<path d="M4922 2738 c-9 -9 -12 -92 -12 -334 0 -287 2 -323 17 -335 10 -9 43
-14 94 -14 121 0 114 -21 117 338 2 230 -1 308 -11 327 -12 23 -18 25 -102 28
-62 2 -94 -1 -103 -10z"/>
<path d="M8079 2733 c-11 -13 -14 -78 -14 -329 0 -372 -7 -349 114 -349 51 0
84 5 94 14 15 12 17 48 17 335 0 237 -3 325 -12 334 -7 7 -45 12 -99 12 -68 0
-89 -3 -100 -17z"/>
<path d="M5466 2455 c-20 -20 -20 -32 0 -109 36 -141 130 -235 283 -280 65
-19 112 -21 129 -4 17 17 16 182 0 195 -7 6 -37 18 -66 27 -59 20 -109 64
-117 104 -15 72 -23 77 -122 80 -73 2 -94 0 -107 -13z"/>
<path d="M5240 1604 c0 -80 3 -105 13 -102 8 3 13 36 15 106 2 86 0 102 -13
102 -12 0 -15 -17 -15 -106z"/>
<path d="M5332 1608 c3 -120 22 -140 26 -28 l3 75 33 -74 c47 -107 56 -103 56
23 0 64 -4 106 -10 106 -6 0 -10 -33 -10 -77 l0 -78 -37 78 c-51 108 -64 103
-61 -25z"/>
<path d="M5520 1684 c-16 -40 -12 -136 6 -162 15 -22 48 -29 71 -14 15 10 28
62 15 62 -5 0 -13 -11 -16 -25 -5 -18 -13 -25 -30 -25 -28 0 -36 21 -36 96 0
61 20 94 47 78 10 -6 19 -21 21 -33 4 -24 22 -29 22 -5 0 34 -20 54 -56 54
-28 0 -36 -5 -44 -26z"/>
<path d="M5690 1605 l0 -105 39 0 c22 0 43 5 46 10 4 6 -8 10 -29 10 l-36 0 0
95 c0 57 -4 95 -10 95 -6 0 -10 -42 -10 -105z"/>
<path d="M5830 1621 c0 -97 11 -121 54 -121 43 0 56 29 56 123 0 113 -18 114
-22 1 -3 -91 -15 -115 -52 -101 -13 5 -16 22 -16 97 0 53 -4 90 -10 90 -6 0
-10 -36 -10 -89z"/>
<path d="M6021 1696 c-24 -28 -9 -69 32 -91 39 -21 52 -41 41 -69 -10 -26 -53
-20 -60 9 -7 29 -24 33 -24 6 0 -45 62 -68 95 -35 27 28 15 65 -32 97 -47 31
-55 60 -24 77 22 11 51 -9 51 -36 0 -8 5 -14 10 -14 13 0 13 26 0 51 -13 23
-71 26 -89 5z"/>
<path d="M6190 1605 c0 -63 4 -105 10 -105 6 0 10 42 10 105 0 63 -4 105 -10
105 -6 0 -10 -42 -10 -105z"/>
<path d="M6309 1610 c15 -56 31 -101 36 -101 11 -1 68 191 60 199 -9 10 -17
-6 -35 -78 -10 -39 -21 -74 -23 -76 -3 -3 -13 30 -24 72 -10 43 -24 79 -30 81
-7 3 -1 -34 16 -97z"/>
<path d="M6470 1605 l0 -105 49 0 c28 0 53 5 56 10 4 6 -12 10 -39 10 l-46 0
0 40 0 40 40 0 c22 0 40 5 40 10 0 6 -18 10 -40 10 -39 0 -40 1 -40 35 0 34 1
35 40 35 22 0 40 5 40 10 0 6 -22 10 -50 10 l-50 0 0 -105z"/>
<path d="M6754 1702 c-36 -25 -18 -79 37 -107 24 -13 30 -22 27 -43 -2 -21 -8
-27 -28 -27 -18 0 -26 6 -28 23 -2 12 -10 22 -18 22 -11 0 -13 -6 -8 -22 11
-38 26 -49 58 -46 42 4 65 48 43 82 -9 13 -29 29 -46 36 -24 10 -31 19 -31 40
0 29 19 43 45 34 8 -4 15 -17 15 -30 0 -13 5 -24 10 -24 14 0 13 43 -2 58 -13
13 -57 16 -74 4z"/>
<path d="M6910 1611 c0 -56 4 -103 10 -106 6 -4 10 23 11 72 l1 78 21 -47 c11
-27 26 -48 32 -48 6 0 21 21 32 48 l21 47 1 -77 c1 -45 5 -78 11 -78 6 0 10
42 10 105 0 66 -4 105 -10 105 -6 0 -23 -28 -38 -61 l-28 -62 -24 62 c-37 91
-50 81 -50 -38z"/>
<path d="M7151 1618 c-13 -51 -26 -99 -29 -105 -2 -7 1 -13 7 -13 6 0 14 14
18 30 5 26 10 30 38 30 28 0 33 -4 39 -30 3 -16 11 -30 17 -30 6 0 9 6 7 13
-3 6 -16 54 -29 105 -13 50 -28 92 -34 92 -6 0 -21 -42 -34 -92z m52 -5 c6
-30 4 -33 -19 -33 -19 0 -24 4 -20 18 3 9 8 30 12 46 8 32 17 21 27 -31z"/>
<path d="M7310 1605 c0 -63 4 -105 10 -105 6 0 10 20 10 45 0 37 3 45 18 45
11 0 26 -16 40 -45 12 -25 26 -45 32 -45 14 0 13 5 -10 51 -19 36 -19 41 -5
55 20 20 19 68 -1 88 -9 9 -32 16 -55 16 l-39 0 0 -105z m86 70 c4 -8 3 -26 0
-40 -5 -20 -13 -25 -36 -25 -28 0 -30 2 -30 40 0 38 2 40 30 40 18 0 33 -6 36
-15z"/>
<path d="M7480 1700 c0 -5 9 -10 20 -10 19 0 20 -7 20 -95 0 -57 4 -95 10 -95
6 0 10 38 10 95 0 87 2 95 19 95 11 0 23 5 26 10 4 6 -15 10 -49 10 -31 0 -56
-4 -56 -10z"/>
<path d="M7795 1698 c-26 -78 -52 -199 -42 -195 7 2 13 16 15 30 3 23 8 27 37
27 29 0 34 -4 40 -30 4 -16 11 -30 16 -30 12 0 13 -2 -18 111 -25 93 -38 116
-48 87z m29 -80 c6 -35 5 -38 -17 -38 -24 0 -24 1 -14 45 12 51 21 48 31 -7z"/>
<path d="M7930 1605 c0 -63 4 -105 10 -105 6 0 10 42 10 105 0 63 -4 105 -10
105 -6 0 -10 -42 -10 -105z"/>
</g>
</svg>
